<svg data-v-423bf9ae="" xmlns="http://www.w3.org/2000/svg" viewBox="0 0 561 112" class="iconLeft"><!----><!----><!----><g data-v-423bf9ae="" id="e0379133-0976-42a3-837f-64922a32a86c" fill="#193655" transform="matrix(5.405405219639779,0,0,5.405405219639779,67.98070184680003,27.82636832637975)"><path d="M4.37 6.58L3.05 6.58L3.05 10.50L0.78 10.50L0.78-0.42L4.37-0.42L4.37-0.42Q4.97-0.42 5.45-0.35L5.45-0.35L5.45-0.35Q5.94-0.28 6.46-0.07L6.46-0.07L6.46-0.07Q6.99 0.14 7.34 0.50L7.34 0.50L7.34 0.50Q7.70 0.85 7.93 1.48L7.93 1.48L7.93 1.48Q8.16 2.10 8.16 2.94L8.16 2.94L8.16 3.22L8.16 3.22Q8.16 4.26 7.83 4.96L7.83 4.96L7.83 4.96Q7.50 5.67 6.92 6.00L6.92 6.00L6.92 6.00Q6.33 6.33 5.73 6.45L5.73 6.45L5.73 6.45Q5.14 6.58 4.37 6.58L4.37 6.58ZM3.05 1.54L3.05 4.62L4.47 4.62L4.47 4.62Q5.87 4.62 5.87 3.15L5.87 3.15L5.87 3.01L5.87 3.01Q5.87 1.54 4.47 1.54L4.47 1.54L3.05 1.54ZM13.26 2.90L13.26 2.90L13.26 2.90Q13.41 2.90 13.47 2.91L13.47 2.91L13.47 5.04L13.09 5.04L13.09 5.04Q11.94 5.04 11.49 5.68L11.49 5.68L11.49 10.50L9.28 10.50L9.28 5.18L9.16 3.08L11.13 3.08L11.28 3.95L11.28 3.95Q12.03 2.90 13.26 2.90ZM17.81 10.68L17.81 10.68L17.81 10.68Q16.09 10.68 15.21 9.70L15.21 9.70L15.21 9.70Q14.34 8.72 14.34 7.04L14.34 7.04L14.34 6.54L14.34 6.54Q14.34 4.86 15.21 3.88L15.21 3.88L15.21 3.88Q16.09 2.90 17.81 2.90L17.81 2.90L17.81 2.90Q19.54 2.90 20.41 3.88L20.41 3.88L20.41 3.88Q21.28 4.86 21.28 6.54L21.28 6.54L21.28 7.04L21.28 7.04Q21.28 8.72 20.41 9.70L20.41 9.70L20.41 9.70Q19.54 10.68 17.81 10.68ZM16.55 7.04L16.55 7.04Q16.55 8.78 17.81 8.78L17.81 8.78L17.81 8.78Q19.07 8.78 19.07 7.04L19.07 7.04L19.07 6.54L19.07 6.54Q19.07 4.80 17.81 4.80L17.81 4.80L17.81 4.80Q16.55 4.80 16.55 6.54L16.55 6.54L16.55 7.04ZM25.31 0.98L25.31 3.08L27.22 3.08L27.22 5.01L25.31 5.01L25.31 7.69L25.31 7.69Q25.31 8.33 25.58 8.55L25.58 8.55L25.58 8.55Q25.84 8.78 26.40 8.78L26.40 8.78L26.40 8.78Q26.88 8.78 27.08 8.68L27.08 8.68L27.08 10.50L27.08 10.50Q26.75 10.68 25.89 10.68L25.89 10.68L25.89 10.68Q23.10 10.68 23.10 7.92L23.10 7.92L23.10 5.01L21.97 5.01L21.97 3.08L23.10 3.08L23.10 0.98L25.31 0.98ZM35.10 6.59L35.10 7.59L30.37 7.59L30.37 7.59Q30.42 8.34 30.77 8.67L30.77 8.67L30.77 8.67Q31.12 9.00 31.77 9.00L31.77 9.00L31.77 9.00Q32.33 9.00 32.67 8.74L32.67 8.74L32.67 8.74Q33.01 8.47 33.01 8.12L33.01 8.12L35.10 8.12L35.10 8.18L35.10 8.18Q35.10 9.27 34.21 9.97L34.21 9.97L34.21 9.97Q33.32 10.68 31.75 10.68L31.75 10.68L31.75 10.68Q29.97 10.68 29.06 9.67L29.06 9.67L29.06 9.67Q28.15 8.67 28.15 6.99L28.15 6.99L28.15 6.59L28.15 6.59Q28.15 4.93 29.06 3.91L29.06 3.91L29.06 3.91Q29.97 2.90 31.67 2.90L31.67 2.90L31.67 2.90Q33.36 2.90 34.23 3.91L34.23 3.91L34.23 3.91Q35.10 4.91 35.10 6.59L35.10 6.59ZM32.87 5.99L32.87 5.99Q32.77 4.58 31.63 4.58L31.63 4.58L31.63 4.58Q30.48 4.58 30.38 5.99L30.38 5.99L32.87 5.99ZM38.49 10.50L36.27 10.50L36.27 3.08L38.49 3.08L38.49 10.50ZM36.22-0.31L38.54-0.31L38.54 2.03L36.22 2.03L36.22-0.31ZM46.69 5.47L46.69 10.50L44.49 10.50L44.49 5.84L44.49 5.84Q44.49 4.80 43.51 4.80L43.51 4.80L43.51 4.80Q42.66 4.80 42.21 5.50L42.21 5.50L42.21 10.50L40.00 10.50L40.00 5.18L39.87 3.08L41.85 3.08L42.01 4.03L42.01 4.03Q42.81 2.90 44.39 2.90L44.39 2.90L44.39 2.90Q45.57 2.90 46.13 3.63L46.13 3.63L46.13 3.63Q46.69 4.35 46.69 5.47L46.69 5.47ZM61.21 10.53L58.30 10.53L56.71 2.17L55.13 10.53L52.23 10.53L50.43-0.42L52.79-0.42L53.84 7.43L55.31-0.42L58.13-0.42L59.60 7.43L60.65-0.42L63.01-0.42L61.21 10.53ZM68.01 2.90L68.01 2.90L68.01 2.90Q68.17 2.90 68.22 2.91L68.22 2.91L68.22 5.04L67.84 5.04L67.84 5.04Q66.70 5.04 66.25 5.68L66.25 5.68L66.25 10.50L64.04 10.50L64.04 5.18L63.91 3.08L65.88 3.08L66.04 3.95L66.04 3.95Q66.78 2.90 68.01 2.90ZM71.64 10.50L69.43 10.50L69.43 3.08L71.64 3.08L71.64 10.50ZM69.37-0.31L71.69-0.31L71.69 2.03L69.37 2.03L69.37-0.31ZM76.01 0.98L76.01 3.08L77.91 3.08L77.91 5.01L76.01 5.01L76.01 7.69L76.01 7.69Q76.01 8.33 76.27 8.55L76.27 8.55L76.27 8.55Q76.54 8.78 77.10 8.78L77.10 8.78L77.10 8.78Q77.57 8.78 77.77 8.68L77.77 8.68L77.77 10.50L77.77 10.50Q77.45 10.68 76.58 10.68L76.58 10.68L76.58 10.68Q73.79 10.68 73.79 7.92L73.79 7.92L73.79 5.01L72.66 5.01L72.66 3.08L73.79 3.08L73.79 0.98L76.01 0.98ZM85.79 6.59L85.79 7.59L81.06 7.59L81.06 7.59Q81.12 8.34 81.47 8.67L81.47 8.67L81.47 8.67Q81.82 9.00 82.46 9.00L82.46 9.00L82.46 9.00Q83.02 9.00 83.36 8.74L83.36 8.74L83.36 8.74Q83.71 8.47 83.71 8.12L83.71 8.12L85.79 8.12L85.79 8.18L85.79 8.18Q85.79 9.27 84.90 9.97L84.90 9.97L84.90 9.97Q84.01 10.68 82.45 10.68L82.45 10.68L82.45 10.68Q80.67 10.68 79.76 9.67L79.76 9.67L79.76 9.67Q78.85 8.67 78.85 6.99L78.85 6.99L78.85 6.59L78.85 6.59Q78.85 4.93 79.76 3.91L79.76 3.91L79.76 3.91Q80.67 2.90 82.36 2.90L82.36 2.90L82.36 2.90Q84.06 2.90 84.92 3.91L84.92 3.91L84.92 3.91Q85.79 4.91 85.79 6.59L85.79 6.59ZM83.57 5.99L83.57 5.99Q83.47 4.58 82.32 4.58L82.32 4.58L82.32 4.58Q81.17 4.58 81.07 5.99L81.07 5.99L83.57 5.99ZM90.94 2.90L90.94 2.90L90.94 2.90Q91.10 2.90 91.15 2.91L91.15 2.91L91.15 5.04L90.78 5.04L90.78 5.04Q89.63 5.04 89.18 5.68L89.18 5.68L89.18 10.50L86.97 10.50L86.97 5.18L86.84 3.08L88.82 3.08L88.97 3.95L88.97 3.95Q89.71 2.90 90.94 2.90Z"></path></g><defs data-v-423bf9ae=""><linearGradient data-v-423bf9ae="" gradientTransform="rotate(25)" id="00b850d1-dae2-42d5-a3d0-80b03666e98a" x1="0%" y1="0%" x2="100%" y2="0%"><stop data-v-423bf9ae="" offset="0%" style="stop-color: rgb(81, 164, 251); stop-opacity: 1;"></stop><stop data-v-423bf9ae="" offset="100%" style="stop-color: rgb(81, 164, 251); stop-opacity: 1;"></stop></linearGradient></defs><g data-v-423bf9ae="" id="466b7b42-592e-4c3e-b2aa-94c1a282f81a" transform="matrix(1.1111165364583333,0,0,1.1111165364583333,0.9002072929150486,0.4438463024782777)" stroke="none" fill="url(#00b850d1-dae2-42d5-a3d0-80b03666e98a)"><path d="M35.838 27.603a31.956 31.956 0 0 0 3.902-3.329c4.739-4.771 7.246-10.467 7.246-16.471V4.271a4.27 4.27 0 1 0-8.541 0v.854H8.553v-.854a4.27 4.27 0 1 0-8.541 0v3.532c0 6.004 2.505 11.7 7.246 16.471 3.991 4.017 9.347 7.12 15.082 8.738 4.279 1.208 8.414 3.59 11.342 6.538 1.741 1.753 3.751 4.407 4.48 7.799H8.837c.357-1.66 1.021-3.143 1.808-4.431h23.13a17.255 17.255 0 0 0-1.608-1.864c-1.289-1.297-2.837-2.476-4.536-3.474H15.56a26.82 26.82 0 0 1 4.802-2.94 37.92 37.92 0 0 1-9.2-4.44 31.956 31.956 0 0 0-3.902 3.329C2.517 38.3.012 43.996.012 50c0 6.005 2.505 11.701 7.246 16.473 3.991 4.016 9.347 7.119 15.082 8.737 4.279 1.206 8.414 3.59 11.342 6.537 1.74 1.752 3.747 4.403 4.479 7.791H8.839c.358-1.66 1.022-3.144 1.812-4.43H33.77a16.913 16.913 0 0 0-1.604-1.856c-1.292-1.302-2.846-2.483-4.551-3.482H15.57a26.888 26.888 0 0 1 4.79-2.931 37.993 37.993 0 0 1-9.2-4.44 31.956 31.956 0 0 0-3.902 3.329C2.517 80.499.012 86.194.012 92.198v3.532a4.27 4.27 0 1 0 8.541 0v-.855h29.894v.855a4.27 4.27 0 0 0 8.542 0v-3.532c0-6.004-2.506-11.699-7.246-16.471-3.991-4.017-9.348-7.12-15.081-8.738-4.28-1.207-8.414-3.59-11.342-6.537-1.742-1.753-3.751-4.408-4.48-7.8h29.323c-.356 1.66-1.021 3.144-1.81 4.431H13.224a17.255 17.255 0 0 0 1.608 1.864c1.289 1.298 2.838 2.477 4.536 3.474h12.07a26.873 26.873 0 0 1-4.802 2.939 37.975 37.975 0 0 1 9.2 4.44 32.113 32.113 0 0 0 3.902-3.328c4.739-4.771 7.246-10.468 7.246-16.473 0-6.004-2.507-11.7-7.246-16.472-3.991-4.016-9.348-7.12-15.081-8.737-4.28-1.207-8.414-3.59-11.342-6.537-1.741-1.752-3.748-4.404-4.479-7.791h29.321c-.357 1.66-1.021 3.143-1.812 4.43h-23.12a17.212 17.212 0 0 0 1.604 1.856c1.293 1.301 2.847 2.483 4.551 3.482h12.046a26.945 26.945 0 0 1-4.791 2.931 37.983 37.983 0 0 1 9.203 4.442z"></path></g><!----></svg>